<svg width="28" height="28" viewBox="0 0 28 28" fill="none" xmlns="http://www.w3.org/2000/svg">
<path d="M23.3333 14.0001V8.16675H25.6667V15.1667H23.3333M23.3333 19.8334H25.6667V17.5001H23.3333M11.6667 15.1667C14.7817 15.1667 21 16.7301 21 19.8334V23.3334H2.33334V19.8334C2.33334 16.7301 8.55168 15.1667 11.6667 15.1667ZM11.6667 4.66675C12.9044 4.66675 14.0913 5.15841 14.9665 6.03358C15.8417 6.90875 16.3333 8.09574 16.3333 9.33341C16.3333 10.5711 15.8417 11.7581 14.9665 12.6332C14.0913 13.5084 12.9044 14.0001 11.6667 14.0001C10.429 14.0001 9.24202 13.5084 8.36685 12.6332C7.49168 11.7581 7.00001 10.5711 7.00001 9.33341C7.00001 8.09574 7.49168 6.90875 8.36685 6.03358C9.24202 5.15841 10.429 4.66675 11.6667 4.66675ZM11.6667 17.3834C8.20168 17.3834 4.55001 19.0867 4.55001 19.8334V21.1167H18.7833V19.8334C18.7833 19.0867 15.1317 17.3834 11.6667 17.3834ZM11.6667 6.88341C11.0169 6.88341 10.3937 7.14154 9.93427 7.601C9.4748 8.06047 9.21668 8.68363 9.21668 9.33341C9.21668 9.98319 9.4748 10.6064 9.93427 11.0658C10.3937 11.5253 11.0169 11.7834 11.6667 11.7834C12.3165 11.7834 12.9396 11.5253 13.3991 11.0658C13.8586 10.6064 14.1167 9.98319 14.1167 9.33341C14.1167 8.68363 13.8586 8.06047 13.3991 7.601C12.9396 7.14154 12.3165 6.88341 11.6667 6.88341Z" fill="black"/>
</svg>
